<svg width="80" height="80" viewBox="0 0 80 80" fill="none" xmlns="http://www.w3.org/2000/svg">
<path d="M74.545 40C74.545 30.4681 71.1544 22.3275 64.3733 15.5783C57.6241 8.82917 49.4996 5.45459 39.9996 5.45459C30.4676 5.45459 22.327 8.82917 15.5778 15.5783C8.82868 22.3275 5.4541 30.4681 5.4541 40C5.4541 49.5 8.82868 57.6246 15.5778 64.3738C22.327 71.1549 30.4676 74.5455 39.9996 74.5455C49.4996 74.5455 57.6241 71.1549 64.3733 64.3738C71.1544 57.6246 74.545 49.5 74.545 40Z" fill="#007E8A"/>
<path d="M70.8995 14.5707C70.8995 11.468 69.3642 9.91663 66.2935 9.91663H13.7556C10.6529 9.91663 9.10156 11.468 9.10156 14.5707V48.1565C9.10156 51.2912 10.6529 52.8585 13.7556 52.8585H66.2935C69.3642 52.8585 70.8995 51.2912 70.8995 48.1565V14.5707Z" fill="#450063"/>
<path d="M66.6287 48.5404V14.1869H13.3711V48.5404H66.6287Z" fill="white"/>
<path d="M33.7145 31.3636C33.7111 30.9695 33.5672 30.6336 33.2827 30.356C33.005 30.0715 32.6692 29.9276 32.2751 29.9242H27.621C27.227 29.9276 26.8911 30.0715 26.6135 30.356C26.329 30.6336 26.185 30.9695 26.1816 31.3636C26.185 31.7577 26.329 32.0935 26.6135 32.3712C26.8911 32.6557 27.227 32.7996 27.621 32.803H32.2751C32.6692 32.7996 33.005 32.6557 33.2827 32.3712C33.5672 32.0935 33.7111 31.7577 33.7145 31.3636Z" fill="#00CCBE"/>
<path d="M35.538 37.8889C35.821 37.6279 35.965 37.292 35.9699 36.8813C35.9755 36.4984 35.8315 36.1625 35.538 35.8738C35.2774 35.5899 34.9415 35.4459 34.5305 35.4419C34.1482 35.4366 33.8124 35.5645 33.5229 35.8258L30.2123 39.1364C29.9291 39.4293 29.7852 39.7651 29.7805 40.144C29.7747 40.5588 29.9027 40.9106 30.1643 41.1995C30.4568 41.4833 30.7927 41.6272 31.1719 41.6313C31.5859 41.6366 31.9378 41.4926 32.2274 41.1995L35.538 37.8889Z" fill="#00CCBE"/>
<path d="M38.9924 38.1288C38.7079 38.4065 38.5639 38.7423 38.5605 39.1364V43.7905C38.5639 44.1845 38.7079 44.5204 38.9924 44.798C39.27 45.0825 39.6059 45.2265 39.9999 45.2299C40.394 45.2265 40.7299 45.0825 41.0075 44.798C41.292 44.5204 41.436 44.1845 41.4393 43.7905V39.1364C41.436 38.7423 41.292 38.4065 41.0075 38.1288C40.7299 37.8443 40.394 37.7004 39.9999 37.697C39.6059 37.7004 39.27 37.8443 38.9924 38.1288Z" fill="#00CCBE"/>
<path d="M41.4393 18.9848C41.436 18.5907 41.292 18.2549 41.0075 17.9772C40.7299 17.6927 40.394 17.5488 39.9999 17.5454C39.6059 17.5488 39.27 17.6927 38.9924 17.9772C38.7079 18.2549 38.5639 18.5907 38.5605 18.9848V23.5429C38.5639 23.937 38.7079 24.2728 38.9924 24.5505C39.27 24.835 39.6059 24.9789 39.9999 24.9823C40.394 24.9789 40.7299 24.835 41.0075 24.5505C41.292 24.2728 41.436 23.937 41.4393 23.5429V18.9848Z" fill="#00CCBE"/>
<path d="M30.2121 23.5909L33.5227 26.9495C33.8003 27.2339 34.1362 27.3778 34.5303 27.3813C34.9244 27.3779 35.2602 27.234 35.5378 26.9495C35.8224 26.6718 35.9663 26.336 35.9697 25.9419C35.9662 25.5478 35.8222 25.212 35.5378 24.9343L32.2272 21.5757C31.9495 21.2912 31.6136 21.1473 31.2197 21.1439C30.8256 21.1473 30.4897 21.2912 30.2121 21.5757C29.9276 21.8534 29.7836 22.1892 29.7803 22.5833C29.7836 22.9773 29.9276 23.3131 30.2121 23.5909Z" fill="#00CCBE"/>
<path d="M46.5253 35.9217C46.2359 35.6606 45.8841 35.5326 45.4697 35.5379C45.0905 35.542 44.7547 35.6859 44.4622 35.9697C44.2005 36.2584 44.0726 36.5943 44.0783 36.9773C44.0831 37.388 44.227 37.7238 44.5101 37.9848L47.7248 41.1515C48.0142 41.4446 48.35 41.5886 48.7324 41.5833C49.1436 41.5792 49.4794 41.4353 49.7399 41.1515C50.0336 40.8628 50.1775 40.5109 50.1717 40.096C50.167 39.7172 50.0231 39.3814 49.7399 39.0884L46.5253 35.9217Z" fill="#00CCBE"/>
<path d="M52.4272 32.803C52.8212 32.7996 53.1571 32.6557 53.4347 32.3712C53.7192 32.0935 53.8632 31.7577 53.8666 31.3636C53.8632 30.9695 53.7192 30.6336 53.4347 30.356C53.1571 30.0715 52.8212 29.9276 52.4272 29.9242H47.8691C47.475 29.9276 47.1391 30.0715 46.8615 30.356C46.577 30.6336 46.4331 30.9695 46.4297 31.3636C46.4331 31.7577 46.577 32.0935 46.8615 32.3712C47.1391 32.6557 47.475 32.7996 47.8691 32.803H52.4272Z" fill="#00CCBE"/>
<path d="M46.5253 26.8056L49.7399 23.5909C50.0231 23.3299 50.167 22.994 50.1717 22.5833C50.1775 22.2004 50.0336 21.8645 49.7399 21.5758C49.4794 21.292 49.1436 21.1481 48.7324 21.144C48.35 21.1387 48.0142 21.2667 47.7248 21.5278L44.5101 24.7424C44.227 25.0354 44.0831 25.3713 44.0783 25.75C44.0726 26.165 44.2005 26.5168 44.4622 26.8056C44.7547 27.0893 45.0905 27.2333 45.4697 27.2374C45.8841 27.2426 46.2359 27.0987 46.5253 26.8056Z" fill="#00CCBE"/>
<path d="M57.7049 51.0353C57.7048 50.367 57.5129 49.7432 57.1292 49.1641C56.7792 48.6265 56.2994 48.2266 55.6898 47.9646L43.6948 42.6868L43.263 31.1237C43.2253 30.2265 42.8734 29.4588 42.2075 28.8207C41.5722 28.2119 40.8046 27.9081 39.9044 27.9091C39.0028 27.9087 38.2191 28.2126 37.5534 28.8207C36.9188 29.4672 36.583 30.2348 36.5459 31.1237L36.0661 44.0783C36.0533 44.2386 36.0533 44.3825 36.0661 44.5101L35.6342 54.6338L31.9878 49.2121C31.4691 48.446 30.7494 47.9662 29.8287 47.7727C28.9373 47.6076 28.1057 47.7836 27.3337 48.3005C26.5663 48.8181 26.0865 49.5218 25.8943 50.4116C25.7303 51.3336 25.9062 52.1812 26.4221 52.9545L35.6342 66.6288C35.7902 66.9086 35.9821 67.1645 36.21 67.3964L36.7858 67.8282C36.9917 67.9798 37.2156 68.0918 37.4575 68.1641C37.5274 68.2063 37.5914 68.2383 37.6494 68.2601L38.2731 68.356C38.3851 68.3838 38.481 68.3998 38.561 68.404C38.608 68.4046 38.64 68.4046 38.657 68.404L51.5635 68.452C52.4905 68.4589 53.2742 68.139 53.9145 67.4924L56.6494 64.7575C56.9939 64.4577 57.2498 64.0898 57.4171 63.654C57.6107 63.2483 57.7067 62.8165 57.7049 62.3586V51.0353Z" fill="#FF9966"/>
</svg>
