<svg xmlns:xlink="http://www.w3.org/1999/xlink" xmlns="http://www.w3.org/2000/svg" height="24" width="24" viewBox="0 0 24 24" role="presentation" focusable="false" class="ccl-0f24ac4b87ce1f67 ccl-abe5c41af1b9498e"><path d="M11.9969 2.00632C14.7118 2.00632 15.0523 2.01783 16.1185 2.06648C17.1826 2.11501 17.9093 2.28402 18.5452 2.53116C19.2025 2.78659 19.76 3.12842 20.3158 3.68417C20.8716 4.23997 21.2134 4.79747 21.4689 5.45485C21.716 6.09072 21.885 6.81743 21.9335 7.88148C21.9822 8.94775 21.9937 9.28818 21.9937 12.0032C21.9937 14.7181 21.9822 15.0586 21.9335 16.1248C21.885 17.1889 21.716 17.9156 21.4689 18.5515C21.2134 19.2089 20.8716 19.7664 20.3158 20.3222C19.76 20.8779 19.2025 21.2197 18.5452 21.4752C17.9093 21.7223 17.1826 21.8913 16.1185 21.9398C15.0523 21.9885 14.7118 22 11.9969 22C9.28187 22 8.94143 21.9885 7.87516 21.9398C6.81111 21.8913 6.0844 21.7223 5.44853 21.4752C4.79115 21.2197 4.23365 20.8779 3.67786 20.3222C3.1221 19.7664 2.78028 19.2089 2.52484 18.5515C2.2777 17.9156 2.10869 17.1889 2.06016 16.1248C2.01151 15.0586 2 14.7181 2 12.0032C2 9.28818 2.01151 8.94775 2.06016 7.88148C2.10869 6.81743 2.2777 6.09072 2.52484 5.45485C2.78028 4.79747 3.1221 4.23997 3.67786 3.68417C4.23365 3.12842 4.79115 2.78659 5.44853 2.53116C6.0844 2.28402 6.81111 2.11501 7.87516 2.06648C8.94143 2.01783 9.28187 2.00632 11.9969 2.00632ZM11.9969 3.80755C9.32758 3.80755 9.01139 3.81775 7.95726 3.86584C6.98258 3.91029 6.45325 4.07314 6.10099 4.21005C5.63437 4.3914 5.30135 4.60802 4.95155 4.95786C4.60171 5.30767 4.38508 5.64068 4.20373 6.10731C4.06683 6.45957 3.90397 6.9889 3.85952 7.96358C3.81143 9.01771 3.80123 9.3339 3.80123 12.0032C3.80123 14.6724 3.81143 14.9886 3.85952 16.0427C3.90397 17.0174 4.06683 17.5468 4.20373 17.899C4.38508 18.3656 4.60175 18.6987 4.95155 19.0485C5.30135 19.3983 5.63437 19.6149 6.10099 19.7963C6.45325 19.9332 6.98258 20.096 7.95726 20.1405C9.01127 20.1886 9.32738 20.1988 11.9969 20.1988C14.6663 20.1988 14.9825 20.1886 16.0364 20.1405C17.0111 20.096 17.5404 19.9332 17.8927 19.7963C18.3593 19.6149 18.6923 19.3983 19.0421 19.0485C19.392 18.6987 19.6086 18.3656 19.79 17.899C19.9269 17.5468 20.0897 17.0174 20.1342 16.0427C20.1823 14.9886 20.1925 14.6724 20.1925 12.0032C20.1925 9.3339 20.1823 9.01771 20.1342 7.96358C20.0897 6.9889 19.9269 6.45957 19.79 6.10731C19.6086 5.64068 19.392 5.30767 19.0421 4.95786C18.6923 4.60802 18.3593 4.3914 17.8927 4.21005C17.5404 4.07314 17.0111 3.91029 16.0364 3.86584C14.9823 3.81775 14.6661 3.80755 11.9969 3.80755ZM11.9969 15.3354C13.8372 15.3354 15.3291 13.8435 15.3291 12.0032C15.3291 10.1628 13.8372 8.67088 11.9969 8.67088C10.1565 8.67088 8.66456 10.1628 8.66456 12.0032C8.66456 13.8435 10.1565 15.3354 11.9969 15.3354ZM11.9969 6.86965C14.832 6.86965 17.1304 9.16798 17.1304 12.0032C17.1304 14.8383 14.832 17.1367 11.9969 17.1367C9.16167 17.1367 6.86333 14.8383 6.86333 12.0032C6.86333 9.16798 9.16167 6.86965 11.9969 6.86965ZM18.5328 6.66683C18.5328 7.32937 17.9957 7.86644 17.3332 7.86644C16.6707 7.86644 16.1336 7.32937 16.1336 6.66683C16.1336 6.00429 16.6707 5.46719 17.3332 5.46719C17.9957 5.46719 18.5328 6.00429 18.5328 6.66683Z" fill="#FFFFFF"></path></svg>