<svg xmlns:xlink="http://www.w3.org/1999/xlink" xmlns="http://www.w3.org/2000/svg" height="24" width="24" viewBox="0 0 24 24" role="presentation" focusable="false" class="ccl-0f24ac4b87ce1f67 ccl-ed34b65f78f16205 ccl-c738ab1fde928049"><path d="M12 2C17.5228 2 22 6.47725 22 12C22 17.5228 17.5228 22 12 22C6.47717 22 2 17.5228 2 12C2 6.47725 6.47717 2 12 2ZM12 20C16.4113 20 20 16.4113 20 12C20 7.58875 16.4113 4 12 4C7.58875 4 4 7.58875 4 12C4 16.4113 7.58875 20 12 20ZM13.5 7V10.4999H17V13.5H13.5V17H10.5V13.5H7V10.4999H10.5V7H13.5Z" fill="#00CCBC"></path></svg>